<svg xmlns="http://www.w3.org/2000/svg" xmlns:xlink="http://www.w3.org/1999/xlink" width="116" zoomAndPan="magnify" viewBox="0 0 87 86.249997" height="115" preserveAspectRatio="xMidYMid meet" version="1.0"><defs><g/></defs><g fill="#ffb300" fill-opacity="1"><g transform="translate(38.174906, 67.554423)"><g><path d="M -0.640625 -0.21875 L -3.296875 7.28125 L -6.734375 6.046875 C -7.472656 5.785156 -7.984375 5.40625 -8.265625 4.90625 C -8.554688 4.414062 -8.582031 3.847656 -8.34375 3.203125 C -8.195312 2.785156 -7.972656 2.472656 -7.671875 2.265625 C -7.367188 2.066406 -7.015625 1.988281 -6.609375 2.03125 L -6.609375 2.015625 C -7.023438 1.753906 -7.300781 1.425781 -7.4375 1.03125 C -7.570312 0.644531 -7.554688 0.210938 -7.390625 -0.265625 C -7.148438 -0.929688 -6.738281 -1.363281 -6.15625 -1.5625 C -5.582031 -1.769531 -4.890625 -1.734375 -4.078125 -1.453125 Z M -3.03125 3.71875 L -5.46875 2.84375 C -5.976562 2.664062 -6.40625 2.632812 -6.75 2.75 C -7.09375 2.863281 -7.332031 3.117188 -7.46875 3.515625 C -7.613281 3.898438 -7.585938 4.25 -7.390625 4.5625 C -7.203125 4.882812 -6.851562 5.132812 -6.34375 5.3125 L -3.90625 6.1875 Z M -1.796875 0.25 L -4.234375 -0.625 C -4.804688 -0.820312 -5.289062 -0.859375 -5.6875 -0.734375 C -6.09375 -0.617188 -6.375 -0.34375 -6.53125 0.09375 C -6.675781 0.507812 -6.628906 0.890625 -6.390625 1.234375 C -6.160156 1.578125 -5.757812 1.847656 -5.1875 2.046875 L -2.75 2.921875 Z M -1.796875 0.25 "/></g></g></g><g fill="#ffb300" fill-opacity="1"><g transform="translate(31.688533, 65.258615)"><g><path d="M -2.765625 -2.125 C -2.265625 -1.789062 -1.890625 -1.375 -1.640625 -0.875 C -1.398438 -0.382812 -1.300781 0.128906 -1.34375 0.671875 C -1.382812 1.210938 -1.570312 1.726562 -1.90625 2.21875 C -2.238281 2.71875 -2.628906 3.082031 -3.078125 3.3125 C -3.535156 3.550781 -4.019531 3.65625 -4.53125 3.625 C -5.039062 3.59375 -5.53125 3.421875 -6 3.109375 C -6.457031 2.796875 -6.785156 2.414062 -6.984375 1.96875 C -7.191406 1.519531 -7.265625 1.039062 -7.203125 0.53125 C -7.140625 0.03125 -6.945312 -0.460938 -6.625 -0.953125 C -6.59375 -0.992188 -6.5625 -1.035156 -6.53125 -1.078125 C -6.5 -1.128906 -6.460938 -1.179688 -6.421875 -1.234375 L -2.453125 1.4375 C -2.265625 1.09375 -2.171875 0.734375 -2.171875 0.359375 C -2.171875 -0.00390625 -2.257812 -0.347656 -2.4375 -0.671875 C -2.625 -0.992188 -2.882812 -1.269531 -3.21875 -1.5 C -3.582031 -1.738281 -3.96875 -1.867188 -4.375 -1.890625 C -4.78125 -1.921875 -5.140625 -1.851562 -5.453125 -1.6875 L -5.875 -2.34375 C -5.613281 -2.539062 -5.304688 -2.660156 -4.953125 -2.703125 C -4.597656 -2.742188 -4.234375 -2.71875 -3.859375 -2.625 C -3.484375 -2.53125 -3.117188 -2.363281 -2.765625 -2.125 Z M -2.875 2.0625 L -6.09375 -0.109375 C -6.375 0.398438 -6.460938 0.882812 -6.359375 1.34375 C -6.253906 1.800781 -5.988281 2.175781 -5.5625 2.46875 C -5.125 2.75 -4.65625 2.847656 -4.15625 2.765625 C -3.664062 2.691406 -3.238281 2.457031 -2.875 2.0625 Z M -2.875 2.0625 "/></g></g></g><g fill="#ffb300" fill-opacity="1"><g transform="translate(26.696913, 61.901238)"><g><path d="M -1.859375 -2.265625 C -1.535156 -1.929688 -1.296875 -1.566406 -1.140625 -1.171875 C -0.984375 -0.773438 -0.914062 -0.382812 -0.9375 0 C -0.96875 0.375 -1.125 0.71875 -1.40625 1.03125 L -2.125 0.515625 C -1.863281 0.234375 -1.757812 -0.117188 -1.8125 -0.546875 C -1.863281 -0.984375 -2.0625 -1.378906 -2.40625 -1.734375 C -2.71875 -2.054688 -3.046875 -2.257812 -3.390625 -2.34375 C -3.734375 -2.4375 -4.015625 -2.378906 -4.234375 -2.171875 C -4.398438 -2.023438 -4.457031 -1.820312 -4.40625 -1.5625 C -4.351562 -1.3125 -4.195312 -0.984375 -3.9375 -0.578125 L -3.4375 0.21875 C -3.125 0.726562 -2.960938 1.164062 -2.953125 1.53125 C -2.953125 1.894531 -3.101562 2.222656 -3.40625 2.515625 C -3.644531 2.734375 -3.921875 2.867188 -4.234375 2.921875 C -4.546875 2.972656 -4.863281 2.9375 -5.1875 2.8125 C -5.519531 2.6875 -5.828125 2.476562 -6.109375 2.1875 C -6.523438 1.75 -6.769531 1.28125 -6.84375 0.78125 C -6.914062 0.28125 -6.820312 -0.164062 -6.5625 -0.5625 L -5.828125 -0.140625 C -6.015625 0.0976562 -6.085938 0.382812 -6.046875 0.71875 C -6.003906 1.050781 -5.84375 1.363281 -5.5625 1.65625 C -5.3125 1.914062 -5.035156 2.066406 -4.734375 2.109375 C -4.441406 2.160156 -4.195312 2.101562 -4 1.9375 C -3.851562 1.789062 -3.796875 1.609375 -3.828125 1.390625 C -3.859375 1.179688 -3.984375 0.898438 -4.203125 0.546875 L -4.703125 -0.25 C -5.054688 -0.832031 -5.25 -1.320312 -5.28125 -1.71875 C -5.3125 -2.113281 -5.175781 -2.457031 -4.875 -2.75 C -4.613281 -2.988281 -4.304688 -3.125 -3.953125 -3.15625 C -3.609375 -3.195312 -3.25 -3.140625 -2.875 -2.984375 C -2.507812 -2.835938 -2.171875 -2.597656 -1.859375 -2.265625 Z M -1.859375 -2.265625 "/></g></g></g><g fill="#ffb300" fill-opacity="1"><g transform="translate(23.123781, 58.178108)"><g><path d="M -1.453125 -2.6875 C -1.171875 -2.238281 -1.070312 -1.785156 -1.15625 -1.328125 C -1.25 -0.867188 -1.519531 -0.5 -1.96875 -0.21875 L -4.875 1.640625 L -4.203125 2.6875 L -4.796875 3.078125 L -5.46875 2.03125 L -6.890625 2.9375 L -7.53125 2.3125 L -5.9375 1.296875 L -7.3125 -0.84375 L -6.71875 -1.234375 L -5.34375 0.90625 L -2.515625 -0.90625 C -2.234375 -1.082031 -2.054688 -1.300781 -1.984375 -1.5625 C -1.910156 -1.820312 -1.957031 -2.082031 -2.125 -2.34375 C -2.269531 -2.582031 -2.488281 -2.75 -2.78125 -2.84375 C -3.082031 -2.945312 -3.40625 -2.914062 -3.75 -2.75 L -3.875 -3.515625 C -3.5625 -3.648438 -3.25 -3.703125 -2.9375 -3.671875 C -2.632812 -3.640625 -2.351562 -3.535156 -2.09375 -3.359375 C -1.84375 -3.179688 -1.628906 -2.957031 -1.453125 -2.6875 Z M -1.453125 -2.6875 "/></g></g></g><g fill="#ffb300" fill-opacity="1"><g transform="translate(20.594422, 54.132305)"><g/></g></g><g fill="#ffb300" fill-opacity="1"><g transform="translate(19.312172, 51.741805)"><g><path d="M -0.359375 -2.390625 C -0.265625 -1.984375 -0.242188 -1.601562 -0.296875 -1.25 C -0.359375 -0.894531 -0.488281 -0.59375 -0.6875 -0.34375 C -0.894531 -0.101562 -1.160156 0.0546875 -1.484375 0.140625 C -1.929688 0.253906 -2.367188 0.160156 -2.796875 -0.140625 C -3.222656 -0.441406 -3.601562 -1.03125 -3.9375 -1.90625 L -4.4375 -3.21875 C -4.476562 -3.363281 -4.550781 -3.460938 -4.65625 -3.515625 C -4.757812 -3.578125 -4.863281 -3.597656 -4.96875 -3.578125 C -5.3125 -3.484375 -5.550781 -3.257812 -5.6875 -2.90625 C -5.820312 -2.5625 -5.828125 -2.144531 -5.703125 -1.65625 C -5.617188 -1.3125 -5.476562 -1.019531 -5.28125 -0.78125 C -5.09375 -0.550781 -4.878906 -0.382812 -4.640625 -0.28125 C -4.398438 -0.175781 -4.164062 -0.140625 -3.9375 -0.171875 L -4.0625 0.671875 C -4.375 0.703125 -4.691406 0.632812 -5.015625 0.46875 C -5.347656 0.3125 -5.644531 0.0625 -5.90625 -0.28125 C -6.175781 -0.625 -6.367188 -1.03125 -6.484375 -1.5 C -6.597656 -1.976562 -6.617188 -2.421875 -6.546875 -2.828125 C -6.484375 -3.234375 -6.320312 -3.578125 -6.0625 -3.859375 C -5.800781 -4.140625 -5.460938 -4.332031 -5.046875 -4.4375 L -2.25 -5.125 C -2.144531 -5.15625 -2.0625 -5.203125 -2 -5.265625 C -1.945312 -5.335938 -1.929688 -5.421875 -1.953125 -5.515625 C -1.992188 -5.671875 -2.140625 -5.789062 -2.390625 -5.875 L -1.96875 -6.453125 C -1.78125 -6.390625 -1.609375 -6.265625 -1.453125 -6.078125 C -1.296875 -5.890625 -1.191406 -5.6875 -1.140625 -5.46875 C -1.066406 -5.195312 -1.09375 -4.960938 -1.21875 -4.765625 C -1.351562 -4.566406 -1.546875 -4.425781 -1.796875 -4.34375 L -2.046875 -4.265625 C -1.640625 -4.160156 -1.285156 -3.945312 -0.984375 -3.625 C -0.691406 -3.300781 -0.484375 -2.890625 -0.359375 -2.390625 Z M -1.15625 -2.375 C -1.25 -2.757812 -1.410156 -3.082031 -1.640625 -3.34375 C -1.878906 -3.601562 -2.15625 -3.785156 -2.46875 -3.890625 C -2.789062 -3.992188 -3.128906 -4 -3.484375 -3.90625 L -3.890625 -3.8125 L -3.25 -2.171875 C -3 -1.515625 -2.742188 -1.085938 -2.484375 -0.890625 C -2.222656 -0.691406 -1.96875 -0.625 -1.71875 -0.6875 C -1.445312 -0.75 -1.257812 -0.9375 -1.15625 -1.25 C -1.050781 -1.570312 -1.050781 -1.945312 -1.15625 -2.375 Z M -1.15625 -2.375 "/></g></g></g><g fill="#ffb300" fill-opacity="1"><g transform="translate(17.732778, 45.686888)"><g><path d="M 2.59375 -3.03125 C 2.59375 -2.59375 2.53125 -2.164062 2.40625 -1.75 C 2.28125 -1.332031 2.097656 -0.960938 1.859375 -0.640625 C 1.628906 -0.328125 1.367188 -0.078125 1.078125 0.109375 L 0.5 -0.546875 C 0.894531 -0.773438 1.210938 -1.113281 1.453125 -1.5625 C 1.691406 -2.007812 1.8125 -2.492188 1.8125 -3.015625 C 1.8125 -3.484375 1.71875 -3.890625 1.53125 -4.234375 C 1.34375 -4.585938 1.078125 -4.863281 0.734375 -5.0625 C 0.398438 -5.257812 0.00390625 -5.359375 -0.453125 -5.359375 L -1.078125 -5.359375 L -1.078125 -5.34375 C -0.722656 -5.125 -0.441406 -4.8125 -0.234375 -4.40625 C -0.0351562 -4 0.0625 -3.59375 0.0625 -3.1875 C 0.0625 -2.632812 -0.0546875 -2.144531 -0.296875 -1.71875 C -0.546875 -1.289062 -0.894531 -0.953125 -1.34375 -0.703125 C -1.789062 -0.460938 -2.304688 -0.34375 -2.890625 -0.34375 C -3.492188 -0.34375 -4.019531 -0.460938 -4.46875 -0.703125 C -4.914062 -0.953125 -5.265625 -1.289062 -5.515625 -1.71875 C -5.773438 -2.144531 -5.90625 -2.632812 -5.90625 -3.1875 C -5.90625 -3.601562 -5.796875 -4.007812 -5.578125 -4.40625 C -5.367188 -4.8125 -5.097656 -5.128906 -4.765625 -5.359375 L -4.765625 -5.375 L -5.703125 -5.453125 L -5.703125 -6.234375 L -0.453125 -6.234375 C 0.160156 -6.234375 0.695312 -6.097656 1.15625 -5.828125 C 1.613281 -5.554688 1.96875 -5.179688 2.21875 -4.703125 C 2.46875 -4.234375 2.59375 -3.675781 2.59375 -3.03125 Z M -0.703125 -3.3125 C -0.703125 -3.71875 -0.796875 -4.078125 -0.984375 -4.390625 C -1.179688 -4.703125 -1.441406 -4.945312 -1.765625 -5.125 C -2.097656 -5.300781 -2.472656 -5.390625 -2.890625 -5.390625 C -3.316406 -5.390625 -3.695312 -5.300781 -4.03125 -5.125 C -4.375 -4.945312 -4.644531 -4.703125 -4.84375 -4.390625 C -5.039062 -4.078125 -5.140625 -3.71875 -5.140625 -3.3125 C -5.140625 -2.894531 -5.039062 -2.523438 -4.84375 -2.203125 C -4.65625 -1.890625 -4.390625 -1.644531 -4.046875 -1.46875 C -3.710938 -1.289062 -3.328125 -1.203125 -2.890625 -1.203125 C -2.460938 -1.203125 -2.082031 -1.289062 -1.75 -1.46875 C -1.425781 -1.644531 -1.171875 -1.890625 -0.984375 -2.203125 C -0.796875 -2.523438 -0.703125 -2.894531 -0.703125 -3.3125 Z M -0.703125 -3.3125 "/></g></g></g><g fill="#ffb300" fill-opacity="1"><g transform="translate(17.696213, 39.386216)"><g><path d="M 1.046875 -3.34375 C 0.898438 -2.75 0.640625 -2.253906 0.265625 -1.859375 C -0.109375 -1.460938 -0.554688 -1.1875 -1.078125 -1.03125 C -1.609375 -0.882812 -2.164062 -0.878906 -2.75 -1.015625 C -3.320312 -1.160156 -3.796875 -1.40625 -4.171875 -1.75 C -4.554688 -2.09375 -4.816406 -2.507812 -4.953125 -3 C -5.097656 -3.5 -5.109375 -4.019531 -4.984375 -4.5625 C -4.847656 -5.101562 -4.601562 -5.539062 -4.25 -5.875 C -3.90625 -6.21875 -3.484375 -6.453125 -2.984375 -6.578125 C -2.484375 -6.703125 -1.953125 -6.691406 -1.390625 -6.546875 C -1.335938 -6.535156 -1.28125 -6.519531 -1.21875 -6.5 C -1.164062 -6.488281 -1.109375 -6.476562 -1.046875 -6.46875 L -2.1875 -1.8125 C -1.789062 -1.757812 -1.421875 -1.796875 -1.078125 -1.921875 C -0.742188 -2.046875 -0.453125 -2.242188 -0.203125 -2.515625 C 0.0351562 -2.796875 0.203125 -3.132812 0.296875 -3.53125 C 0.398438 -3.945312 0.390625 -4.351562 0.265625 -4.75 C 0.148438 -5.144531 -0.0351562 -5.457031 -0.296875 -5.6875 L 0.171875 -6.34375 C 0.453125 -6.15625 0.671875 -5.898438 0.828125 -5.578125 C 0.984375 -5.265625 1.082031 -4.914062 1.125 -4.53125 C 1.175781 -4.144531 1.148438 -3.75 1.046875 -3.34375 Z M -2.921875 -1.984375 L -2 -5.765625 C -2.570312 -5.859375 -3.054688 -5.773438 -3.453125 -5.515625 C -3.847656 -5.253906 -4.109375 -4.867188 -4.234375 -4.359375 C -4.359375 -3.847656 -4.296875 -3.378906 -4.046875 -2.953125 C -3.796875 -2.523438 -3.421875 -2.203125 -2.921875 -1.984375 Z M -2.921875 -1.984375 "/></g></g></g><g fill="#ffb300" fill-opacity="1"><g transform="translate(19.085661, 33.546762)"><g><path d="M -3.640625 -5.921875 C -3.335938 -6.503906 -2.925781 -6.867188 -2.40625 -7.015625 C -1.882812 -7.171875 -1.3125 -7.085938 -0.6875 -6.765625 L 2.59375 -5.109375 L 2.203125 -4.328125 L -1 -5.953125 C -1.4375 -6.171875 -1.835938 -6.226562 -2.203125 -6.125 C -2.578125 -6.019531 -2.867188 -5.765625 -3.078125 -5.359375 C -3.253906 -5.015625 -3.332031 -4.675781 -3.3125 -4.34375 C -3.300781 -4.007812 -3.203125 -3.695312 -3.015625 -3.40625 C -2.835938 -3.125 -2.578125 -2.894531 -2.234375 -2.71875 L 0.640625 -1.265625 L 0.25 -0.5 L -4.828125 -3.078125 L -4.46875 -3.78125 L -3.671875 -3.453125 L -3.65625 -3.46875 C -3.875 -3.851562 -3.984375 -4.242188 -3.984375 -4.640625 C -3.984375 -5.046875 -3.867188 -5.472656 -3.640625 -5.921875 Z M -3.640625 -5.921875 "/></g></g></g><g fill="#ffb300" fill-opacity="1"><g transform="translate(21.637506, 28.369104)"><g><path d="M 2.328125 -2.421875 C 1.953125 -1.972656 1.515625 -1.65625 1.015625 -1.46875 C 0.523438 -1.289062 0.0195312 -1.253906 -0.5 -1.359375 C -1.019531 -1.460938 -1.503906 -1.707031 -1.953125 -2.09375 C -2.421875 -2.476562 -2.753906 -2.910156 -2.953125 -3.390625 C -3.148438 -3.878906 -3.207031 -4.367188 -3.125 -4.859375 C -3.050781 -5.359375 -2.835938 -5.820312 -2.484375 -6.25 C -2.203125 -6.570312 -1.882812 -6.816406 -1.53125 -6.984375 C -1.175781 -7.148438 -0.804688 -7.234375 -0.421875 -7.234375 C -0.0351562 -7.242188 0.335938 -7.160156 0.703125 -6.984375 L 0.3125 -6.234375 C -0.0820312 -6.421875 -0.476562 -6.46875 -0.875 -6.375 C -1.28125 -6.28125 -1.617188 -6.070312 -1.890625 -5.75 C -2.128906 -5.46875 -2.269531 -5.144531 -2.3125 -4.78125 C -2.351562 -4.425781 -2.296875 -4.070312 -2.140625 -3.71875 C -1.992188 -3.363281 -1.742188 -3.039062 -1.390625 -2.75 C -1.046875 -2.457031 -0.679688 -2.269531 -0.296875 -2.1875 C 0.0859375 -2.101562 0.457031 -2.125 0.8125 -2.25 C 1.164062 -2.382812 1.472656 -2.609375 1.734375 -2.921875 C 1.960938 -3.191406 2.113281 -3.476562 2.1875 -3.78125 C 2.269531 -4.09375 2.273438 -4.40625 2.203125 -4.71875 C 2.140625 -5.03125 2.003906 -5.3125 1.796875 -5.5625 L 2.46875 -6.078125 C 2.757812 -5.753906 2.941406 -5.375 3.015625 -4.9375 C 3.097656 -4.507812 3.082031 -4.078125 2.96875 -3.640625 C 2.851562 -3.203125 2.640625 -2.796875 2.328125 -2.421875 Z M 2.328125 -2.421875 "/></g></g></g><g fill="#ffb300" fill-opacity="1"><g transform="translate(25.465206, 23.757996)"><g><path d="M 3.75 0.4375 C 3.175781 0.851562 2.609375 1.101562 2.046875 1.1875 C 1.492188 1.269531 1 1.195312 0.5625 0.96875 L 0.828125 0.125 C 1.191406 0.3125 1.585938 0.382812 2.015625 0.34375 C 2.441406 0.300781 2.859375 0.125 3.265625 -0.1875 C 3.785156 -0.570312 4.09375 -1.007812 4.1875 -1.5 C 4.289062 -1.988281 4.160156 -2.476562 3.796875 -2.96875 L 3.5 -3.359375 L 3.484375 -3.359375 C 3.523438 -2.972656 3.457031 -2.597656 3.28125 -2.234375 C 3.101562 -1.878906 2.859375 -1.582031 2.546875 -1.34375 C 2.160156 -1.050781 1.757812 -0.882812 1.34375 -0.84375 C 0.9375 -0.8125 0.539062 -0.890625 0.15625 -1.078125 C -0.21875 -1.273438 -0.546875 -1.566406 -0.828125 -1.953125 L -3.015625 -4.859375 L -2.328125 -5.375 L -0.140625 -2.46875 C 0.160156 -2.0625 0.519531 -1.8125 0.9375 -1.71875 C 1.351562 -1.625 1.757812 -1.726562 2.15625 -2.03125 C 2.414062 -2.226562 2.609375 -2.472656 2.734375 -2.765625 C 2.867188 -3.066406 2.921875 -3.378906 2.890625 -3.703125 C 2.867188 -4.023438 2.75 -4.332031 2.53125 -4.625 L 0.421875 -7.4375 L 1.109375 -7.953125 L 4.46875 -3.484375 C 4.96875 -2.804688 5.148438 -2.117188 5.015625 -1.421875 C 4.890625 -0.722656 4.46875 -0.101562 3.75 0.4375 Z M 3.75 0.4375 "/></g></g></g><g fill="#ffb300" fill-opacity="1"><g transform="translate(30.218858, 20.32887)"><g/></g></g><g fill="#ffb300" fill-opacity="1"><g transform="translate(32.56138, 18.932207)"><g><path d="M 0.53125 -0.171875 L 0.328125 -0.8125 C 0.203125 -1.257812 0.148438 -1.664062 0.171875 -2.03125 C 0.191406 -2.40625 0.300781 -2.773438 0.5 -3.140625 C 0.695312 -3.503906 0.988281 -3.898438 1.375 -4.328125 L 2.109375 -5.09375 C 2.472656 -5.488281 2.703125 -5.835938 2.796875 -6.140625 C 2.890625 -6.441406 2.882812 -6.765625 2.78125 -7.109375 C 2.65625 -7.515625 2.421875 -7.804688 2.078125 -7.984375 C 1.742188 -8.160156 1.367188 -8.179688 0.953125 -8.046875 C 0.484375 -7.898438 0.148438 -7.613281 -0.046875 -7.1875 C -0.253906 -6.757812 -0.28125 -6.226562 -0.125 -5.59375 L -1.046875 -5.484375 C -1.179688 -6.003906 -1.195312 -6.488281 -1.09375 -6.9375 C -0.988281 -7.382812 -0.78125 -7.773438 -0.46875 -8.109375 C -0.15625 -8.453125 0.238281 -8.703125 0.71875 -8.859375 C 1.164062 -8.992188 1.59375 -9.019531 2 -8.9375 C 2.40625 -8.863281 2.753906 -8.6875 3.046875 -8.40625 C 3.347656 -8.125 3.566406 -7.769531 3.703125 -7.34375 C 3.859375 -6.851562 3.867188 -6.398438 3.734375 -5.984375 C 3.597656 -5.578125 3.289062 -5.125 2.8125 -4.625 L 2.03125 -3.765625 C 1.582031 -3.296875 1.296875 -2.867188 1.171875 -2.484375 C 1.046875 -2.109375 1.054688 -1.695312 1.203125 -1.25 L 5.4375 -2.578125 L 5.6875 -1.78125 Z M 0.53125 -0.171875 "/></g></g></g><g fill="#ffb300" fill-opacity="1"><g transform="translate(38.146708, 17.018399)"><g><path d="M 3.96875 0.109375 C 3.289062 0.140625 2.6875 -0.015625 2.15625 -0.359375 C 1.632812 -0.710938 1.21875 -1.203125 0.90625 -1.828125 C 0.59375 -2.453125 0.421875 -3.175781 0.390625 -4 C 0.347656 -4.832031 0.453125 -5.570312 0.703125 -6.21875 C 0.960938 -6.863281 1.335938 -7.378906 1.828125 -7.765625 C 2.316406 -8.148438 2.898438 -8.359375 3.578125 -8.390625 C 4.242188 -8.421875 4.835938 -8.265625 5.359375 -7.921875 C 5.890625 -7.578125 6.3125 -7.09375 6.625 -6.46875 C 6.9375 -5.851562 7.113281 -5.128906 7.15625 -4.296875 C 7.1875 -3.472656 7.070312 -2.734375 6.8125 -2.078125 C 6.5625 -1.429688 6.191406 -0.910156 5.703125 -0.515625 C 5.210938 -0.128906 4.632812 0.078125 3.96875 0.109375 Z M 3.921875 -0.71875 C 4.410156 -0.738281 4.832031 -0.90625 5.1875 -1.21875 C 5.539062 -1.539062 5.804688 -1.960938 5.984375 -2.484375 C 6.160156 -3.003906 6.238281 -3.59375 6.21875 -4.25 C 6.1875 -4.914062 6.054688 -5.503906 5.828125 -6.015625 C 5.597656 -6.523438 5.296875 -6.914062 4.921875 -7.1875 C 4.546875 -7.46875 4.113281 -7.597656 3.625 -7.578125 C 3.132812 -7.554688 2.707031 -7.390625 2.34375 -7.078125 C 1.988281 -6.765625 1.722656 -6.34375 1.546875 -5.8125 C 1.367188 -5.289062 1.296875 -4.695312 1.328125 -4.03125 C 1.347656 -3.375 1.472656 -2.789062 1.703125 -2.28125 C 1.929688 -1.78125 2.234375 -1.390625 2.609375 -1.109375 C 2.992188 -0.828125 3.429688 -0.695312 3.921875 -0.71875 Z M 3.921875 -0.71875 "/></g></g></g><g fill="#ffb300" fill-opacity="1"><g transform="translate(45.494402, 16.717763)"><g><path d="M 0.546875 0.125 L 0.6875 -0.53125 C 0.800781 -0.988281 0.957031 -1.375 1.15625 -1.6875 C 1.363281 -2 1.640625 -2.265625 1.984375 -2.484375 C 2.335938 -2.710938 2.785156 -2.914062 3.328125 -3.09375 L 4.34375 -3.390625 C 4.863281 -3.554688 5.238281 -3.742188 5.46875 -3.953125 C 5.707031 -4.171875 5.863281 -4.453125 5.9375 -4.796875 C 6.019531 -5.210938 5.957031 -5.582031 5.75 -5.90625 C 5.539062 -6.226562 5.222656 -6.4375 4.796875 -6.53125 C 4.316406 -6.632812 3.882812 -6.550781 3.5 -6.28125 C 3.113281 -6.007812 2.835938 -5.554688 2.671875 -4.921875 L 1.796875 -5.28125 C 1.929688 -5.800781 2.15625 -6.226562 2.46875 -6.5625 C 2.78125 -6.90625 3.15625 -7.144531 3.59375 -7.28125 C 4.039062 -7.425781 4.507812 -7.445312 5 -7.34375 C 5.457031 -7.238281 5.84375 -7.050781 6.15625 -6.78125 C 6.476562 -6.507812 6.695312 -6.175781 6.8125 -5.78125 C 6.9375 -5.394531 6.953125 -4.984375 6.859375 -4.546875 C 6.753906 -4.054688 6.539062 -3.660156 6.21875 -3.359375 C 5.894531 -3.066406 5.394531 -2.820312 4.71875 -2.625 L 3.640625 -2.28125 C 3.003906 -2.082031 2.539062 -1.847656 2.25 -1.578125 C 1.957031 -1.316406 1.757812 -0.953125 1.65625 -0.484375 L 5.984375 0.453125 L 5.8125 1.265625 Z M 0.546875 0.125 "/></g></g></g><g fill="#ffb300" fill-opacity="1"><g transform="translate(51.319598, 17.991708)"><g><path d="M 0.234375 0.109375 L 0.578125 -0.640625 L 2.625 0.28125 L 5.046875 -5.0625 L 5.03125 -5.0625 C 4.789062 -4.925781 4.5 -4.84375 4.15625 -4.8125 C 3.820312 -4.78125 3.460938 -4.785156 3.078125 -4.828125 L 3.203125 -5.78125 C 4.191406 -5.570312 5 -5.707031 5.625 -6.1875 L 6.40625 -5.828125 L 3.46875 0.671875 L 5.09375 1.40625 L 4.75 2.15625 Z M 0.234375 0.109375 "/></g></g></g><g fill="#ffb300" fill-opacity="1"><g transform="translate(55.852992, 20.115527)"><g/></g></g><g fill="#ffb300" fill-opacity="1"><g transform="translate(58.219731, 21.529573)"><g><path d="M 2.125 -1.53125 L 2.65625 -2.125 L 5.765625 0.65625 L 5.234375 1.25 Z M 2.125 -1.53125 "/></g></g></g><g fill="#ffb300" fill-opacity="1"><g transform="translate(61.922381, 24.697506)"><g><path d="M 0.328125 0.453125 L 0.875 0.0625 C 1.257812 -0.207031 1.628906 -0.390625 1.984375 -0.484375 C 2.347656 -0.585938 2.734375 -0.601562 3.140625 -0.53125 C 3.546875 -0.46875 4.007812 -0.316406 4.53125 -0.078125 L 5.5 0.359375 C 6 0.578125 6.40625 0.679688 6.71875 0.671875 C 7.03125 0.671875 7.332031 0.5625 7.625 0.34375 C 7.96875 0.09375 8.171875 -0.21875 8.234375 -0.59375 C 8.296875 -0.96875 8.195312 -1.332031 7.9375 -1.6875 C 7.644531 -2.082031 7.265625 -2.304688 6.796875 -2.359375 C 6.328125 -2.421875 5.816406 -2.269531 5.265625 -1.90625 L 4.859375 -2.75 C 5.296875 -3.039062 5.742188 -3.210938 6.203125 -3.265625 C 6.671875 -3.316406 7.113281 -3.25 7.53125 -3.0625 C 7.957031 -2.875 8.320312 -2.578125 8.625 -2.171875 C 8.894531 -1.796875 9.054688 -1.398438 9.109375 -0.984375 C 9.160156 -0.566406 9.101562 -0.175781 8.9375 0.1875 C 8.769531 0.5625 8.503906 0.878906 8.140625 1.140625 C 7.734375 1.441406 7.3125 1.597656 6.875 1.609375 C 6.445312 1.617188 5.910156 1.476562 5.265625 1.1875 L 4.234375 0.703125 C 3.628906 0.429688 3.128906 0.296875 2.734375 0.296875 C 2.335938 0.304688 1.945312 0.453125 1.5625 0.734375 L 4.1875 4.328125 L 3.515625 4.8125 Z M 0.328125 0.453125 "/></g></g></g><g fill="#ffb300" fill-opacity="1"><g transform="translate(65.533807, 29.366002)"><g><path d="M 1.171875 3.796875 C 0.921875 3.160156 0.875 2.535156 1.03125 1.921875 C 1.195312 1.316406 1.523438 0.765625 2.015625 0.265625 C 2.503906 -0.222656 3.132812 -0.613281 3.90625 -0.90625 C 4.675781 -1.207031 5.410156 -1.34375 6.109375 -1.3125 C 6.804688 -1.289062 7.414062 -1.109375 7.9375 -0.765625 C 8.46875 -0.429688 8.859375 0.0507812 9.109375 0.6875 C 9.347656 1.300781 9.382812 1.910156 9.21875 2.515625 C 9.0625 3.128906 8.738281 3.6875 8.25 4.1875 C 7.757812 4.6875 7.128906 5.085938 6.359375 5.390625 C 5.585938 5.679688 4.851562 5.8125 4.15625 5.78125 C 3.457031 5.75 2.84375 5.5625 2.3125 5.21875 C 1.789062 4.882812 1.410156 4.410156 1.171875 3.796875 Z M 1.953125 3.484375 C 2.128906 3.929688 2.421875 4.273438 2.828125 4.515625 C 3.234375 4.753906 3.710938 4.875 4.265625 4.875 C 4.828125 4.875 5.414062 4.753906 6.03125 4.515625 C 6.644531 4.265625 7.148438 3.953125 7.546875 3.578125 C 7.953125 3.203125 8.226562 2.789062 8.375 2.34375 C 8.53125 1.894531 8.519531 1.445312 8.34375 1 C 8.164062 0.539062 7.867188 0.191406 7.453125 -0.046875 C 7.035156 -0.285156 6.550781 -0.40625 6 -0.40625 C 5.445312 -0.414062 4.863281 -0.296875 4.25 -0.046875 C 3.632812 0.191406 3.125 0.5 2.71875 0.875 C 2.3125 1.257812 2.035156 1.675781 1.890625 2.125 C 1.753906 2.570312 1.773438 3.023438 1.953125 3.484375 Z M 1.953125 3.484375 "/></g></g></g><g fill="#ffb300" fill-opacity="1"><g transform="translate(68.176926, 36.232132)"><g><path d="M 0.0625 0.5625 L 0.734375 0.484375 C 1.191406 0.441406 1.601562 0.460938 1.96875 0.546875 C 2.332031 0.640625 2.675781 0.816406 3 1.078125 C 3.320312 1.335938 3.648438 1.703125 3.984375 2.171875 L 4.609375 3.03125 C 4.929688 3.457031 5.234375 3.75 5.515625 3.90625 C 5.796875 4.0625 6.113281 4.117188 6.46875 4.078125 C 6.882812 4.023438 7.210938 3.847656 7.453125 3.546875 C 7.691406 3.242188 7.785156 2.878906 7.734375 2.453125 C 7.679688 1.960938 7.460938 1.578125 7.078125 1.296875 C 6.691406 1.015625 6.171875 0.894531 5.515625 0.9375 L 5.59375 0.015625 C 6.113281 -0.0234375 6.585938 0.0390625 7.015625 0.21875 C 7.441406 0.40625 7.789062 0.6875 8.0625 1.0625 C 8.34375 1.4375 8.507812 1.875 8.5625 2.375 C 8.613281 2.832031 8.5625 3.253906 8.40625 3.640625 C 8.25 4.035156 8.003906 4.351562 7.671875 4.59375 C 7.347656 4.832031 6.96875 4.976562 6.53125 5.03125 C 6.019531 5.09375 5.570312 5.015625 5.1875 4.796875 C 4.800781 4.585938 4.40625 4.195312 4 3.625 L 3.328125 2.703125 C 2.941406 2.171875 2.570312 1.804688 2.21875 1.609375 C 1.875 1.421875 1.46875 1.351562 1 1.40625 L 1.5 5.828125 L 0.671875 5.921875 Z M 0.0625 0.5625 "/></g></g></g><g fill="#ffb300" fill-opacity="1"><g transform="translate(68.903861, 42.122365)"><g><path d="M -0.0625 0.5625 L 0.609375 0.640625 C 1.066406 0.703125 1.460938 0.816406 1.796875 0.984375 C 2.128906 1.160156 2.421875 1.410156 2.671875 1.734375 C 2.929688 2.066406 3.164062 2.5 3.375 3.03125 L 3.78125 4 C 4 4.5 4.226562 4.851562 4.46875 5.0625 C 4.707031 5.28125 5 5.410156 5.34375 5.453125 C 5.769531 5.503906 6.132812 5.410156 6.4375 5.171875 C 6.738281 4.929688 6.914062 4.597656 6.96875 4.171875 C 7.03125 3.679688 6.90625 3.253906 6.59375 2.890625 C 6.28125 2.523438 5.800781 2.285156 5.15625 2.171875 L 5.4375 1.296875 C 5.957031 1.378906 6.40625 1.554688 6.78125 1.828125 C 7.15625 2.109375 7.429688 2.460938 7.609375 2.890625 C 7.785156 3.316406 7.84375 3.78125 7.78125 4.28125 C 7.726562 4.738281 7.582031 5.140625 7.34375 5.484375 C 7.101562 5.828125 6.796875 6.078125 6.421875 6.234375 C 6.046875 6.390625 5.632812 6.4375 5.1875 6.375 C 4.6875 6.320312 4.269531 6.148438 3.9375 5.859375 C 3.613281 5.578125 3.316406 5.109375 3.046875 4.453125 L 2.625 3.40625 C 2.363281 2.789062 2.085938 2.347656 1.796875 2.078125 C 1.503906 1.816406 1.125 1.65625 0.65625 1.59375 L 0.125 6 L -0.703125 5.90625 Z M -0.0625 0.5625 "/></g></g></g><g fill="#ffb300" fill-opacity="1"><g transform="translate(68.117529, 48.076923)"><g><path d="M -2.703125 -0.421875 L -2.453125 -0.765625 L 6.6875 5.703125 L 6.453125 6.0625 Z M -2.703125 -0.421875 "/></g></g></g><g fill="#ffb300" fill-opacity="1"><g transform="translate(67.037103, 51.499187)"><g/></g></g><g fill="#ffb300" fill-opacity="1"><g transform="translate(65.84076, 54.095455)"><g><path d="M -0.34375 0.578125 L 6.53125 4.5625 L 6.0625 5.375 L -0.8125 1.390625 Z M -0.34375 0.578125 "/></g></g></g><g fill="#ffb300" fill-opacity="1"><g transform="translate(65.006427, 55.8919)"><g><path d="M 2.328125 6.53125 C 1.921875 7.039062 1.441406 7.316406 0.890625 7.359375 C 0.347656 7.398438 -0.195312 7.203125 -0.75 6.765625 L -3.609375 4.453125 L -3.046875 3.78125 L -0.25 6.046875 C 0.125 6.347656 0.503906 6.484375 0.890625 6.453125 C 1.273438 6.421875 1.609375 6.234375 1.890625 5.890625 C 2.128906 5.585938 2.28125 5.269531 2.34375 4.9375 C 2.40625 4.613281 2.375 4.289062 2.25 3.96875 C 2.125 3.65625 1.910156 3.375 1.609375 3.125 L -0.890625 1.109375 L -0.359375 0.4375 L 4.078125 4.015625 L 3.59375 4.625 L 2.875 4.15625 L 2.859375 4.171875 C 2.992188 4.566406 3.015625 4.960938 2.921875 5.359375 C 2.835938 5.753906 2.640625 6.144531 2.328125 6.53125 Z M 2.328125 6.53125 "/></g></g></g><g fill="#ffb300" fill-opacity="1"><g transform="translate(61.456066, 60.433583)"><g><path d="M -2.703125 1.796875 C -2.265625 1.460938 -1.789062 1.265625 -1.28125 1.203125 C -0.769531 1.148438 -0.273438 1.226562 0.203125 1.4375 C 0.691406 1.65625 1.113281 1.992188 1.46875 2.453125 C 1.820312 2.929688 2.039062 3.425781 2.125 3.9375 C 2.21875 4.457031 2.171875 4.957031 1.984375 5.4375 C 1.804688 5.914062 1.5 6.320312 1.0625 6.65625 C 0.675781 6.945312 0.269531 7.125 -0.15625 7.1875 C -0.582031 7.25 -1.003906 7.203125 -1.421875 7.046875 L -1.4375 7.0625 L 0.734375 9.890625 L 0.03125 10.421875 L -5.015625 3.84375 L -4.40625 3.375 L -3.75 4.109375 L -3.734375 4.09375 C -3.773438 3.644531 -3.707031 3.222656 -3.53125 2.828125 C -3.363281 2.429688 -3.085938 2.085938 -2.703125 1.796875 Z M -2.328125 2.46875 C -2.648438 2.71875 -2.875 3.019531 -3 3.375 C -3.132812 3.738281 -3.164062 4.113281 -3.09375 4.5 C -3.03125 4.882812 -2.867188 5.242188 -2.609375 5.578125 C -2.347656 5.929688 -2.035156 6.1875 -1.671875 6.34375 C -1.316406 6.507812 -0.953125 6.570312 -0.578125 6.53125 C -0.203125 6.5 0.144531 6.359375 0.46875 6.109375 C 0.800781 5.859375 1.035156 5.550781 1.171875 5.1875 C 1.304688 4.832031 1.335938 4.460938 1.265625 4.078125 C 1.203125 3.703125 1.039062 3.335938 0.78125 2.984375 C 0.507812 2.640625 0.195312 2.390625 -0.15625 2.234375 C -0.519531 2.078125 -0.890625 2.015625 -1.265625 2.046875 C -1.648438 2.085938 -2.003906 2.226562 -2.328125 2.46875 Z M -2.328125 2.46875 "/></g></g></g><g fill="#ffb300" fill-opacity="1"><g transform="translate(56.200255, 64.263445)"><g><path d="M 2.25 6.515625 C 2.414062 6.421875 2.578125 6.398438 2.734375 6.453125 C 2.890625 6.503906 3.007812 6.613281 3.09375 6.78125 C 3.1875 6.945312 3.207031 7.101562 3.15625 7.25 C 3.113281 7.40625 3.007812 7.53125 2.84375 7.625 C 2.675781 7.707031 2.515625 7.726562 2.359375 7.6875 C 2.203125 7.644531 2.078125 7.539062 1.984375 7.375 C 1.898438 7.207031 1.878906 7.039062 1.921875 6.875 C 1.972656 6.71875 2.082031 6.597656 2.25 6.515625 Z M -0.5625 0.296875 L 2.125 5.328125 L 1.359375 5.734375 L -1.328125 0.703125 Z M -0.5625 0.296875 "/></g></g></g><g fill="#ffb300" fill-opacity="1"><g transform="translate(54.66688, 65.323055)"><g><path d="M -2.375 0.578125 C -1.96875 0.441406 -1.582031 0.382812 -1.21875 0.40625 C -0.863281 0.4375 -0.550781 0.546875 -0.28125 0.734375 C -0.0195312 0.921875 0.164062 1.171875 0.28125 1.484375 C 0.425781 1.921875 0.363281 2.359375 0.09375 2.796875 C -0.164062 3.242188 -0.710938 3.671875 -1.546875 4.078125 L -2.84375 4.703125 C -2.976562 4.765625 -3.066406 4.847656 -3.109375 4.953125 C -3.160156 5.054688 -3.171875 5.160156 -3.140625 5.265625 C -3.023438 5.597656 -2.785156 5.816406 -2.421875 5.921875 C -2.066406 6.023438 -1.65625 5.992188 -1.1875 5.828125 C -0.84375 5.710938 -0.5625 5.550781 -0.34375 5.34375 C -0.125 5.132812 0.0234375 4.90625 0.109375 4.65625 C 0.191406 4.40625 0.207031 4.164062 0.15625 3.9375 L 1 4 C 1.0625 4.300781 1.023438 4.617188 0.890625 4.953125 C 0.765625 5.296875 0.539062 5.613281 0.21875 5.90625 C -0.09375 6.207031 -0.484375 6.4375 -0.953125 6.59375 C -1.410156 6.75 -1.84375 6.804688 -2.25 6.765625 C -2.664062 6.722656 -3.019531 6.585938 -3.3125 6.359375 C -3.613281 6.140625 -3.835938 5.820312 -3.984375 5.40625 L -4.90625 2.6875 C -4.945312 2.570312 -5.003906 2.488281 -5.078125 2.4375 C -5.148438 2.394531 -5.234375 2.390625 -5.328125 2.421875 C -5.484375 2.472656 -5.585938 2.628906 -5.640625 2.890625 L -6.28125 2.53125 C -6.207031 2.320312 -6.085938 2.132812 -5.921875 1.96875 C -5.765625 1.800781 -5.582031 1.679688 -5.375 1.609375 C -5.101562 1.515625 -4.863281 1.519531 -4.65625 1.625 C -4.445312 1.738281 -4.289062 1.914062 -4.1875 2.15625 L -4.078125 2.40625 C -4.003906 2 -3.820312 1.632812 -3.53125 1.3125 C -3.238281 0.988281 -2.851562 0.742188 -2.375 0.578125 Z M -2.265625 1.34375 C -2.640625 1.476562 -2.945312 1.671875 -3.1875 1.921875 C -3.4375 2.171875 -3.597656 2.457031 -3.671875 2.78125 C -3.742188 3.113281 -3.722656 3.457031 -3.609375 3.8125 L -3.46875 4.1875 L -1.890625 3.421875 C -1.265625 3.117188 -0.859375 2.828125 -0.671875 2.546875 C -0.492188 2.265625 -0.445312 2.003906 -0.53125 1.765625 C -0.625 1.492188 -0.832031 1.320312 -1.15625 1.25 C -1.476562 1.175781 -1.847656 1.207031 -2.265625 1.34375 Z M -2.265625 1.34375 "/></g></g></g></svg>