<svg xmlns="http://www.w3.org/2000/svg" xmlns:xlink="http://www.w3.org/1999/xlink" width="40" zoomAndPan="magnify" viewBox="0 0 30 30.000001" height="40" preserveAspectRatio="xMidYMid meet" version="1.0"><defs><clipPath id="1a43b4ea6e"><path d="M 4.964844 4.179688 L 25.289062 4.179688 L 25.289062 24.5 L 4.964844 24.5 Z M 4.964844 4.179688 " clip-rule="nonzero"/></clipPath></defs><g clip-path="url(#1a43b4ea6e)"><path fill="#ffb300" d="M 14.234375 4.363281 C 14.714844 4.121094 15.28125 4.121094 15.761719 4.363281 L 24.085938 8.609375 C 25.34375 9.253906 25.34375 11.082031 24.085938 11.722656 L 22.875 12.339844 L 24.085938 12.960938 C 25.34375 13.601562 25.34375 15.429688 24.085938 16.070312 L 22.875 16.691406 L 24.085938 17.308594 C 25.34375 17.949219 25.34375 19.78125 24.085938 20.421875 L 15.761719 24.667969 C 15.28125 24.910156 14.714844 24.910156 14.234375 24.667969 L 5.910156 20.421875 C 4.652344 19.78125 4.652344 17.949219 5.910156 17.308594 L 7.121094 16.691406 L 5.910156 16.070312 C 4.652344 15.429688 4.652344 13.601562 5.910156 12.960938 L 7.121094 12.339844 L 5.910156 11.722656 C 4.652344 11.082031 4.652344 9.253906 5.910156 8.609375 Z M 9.417969 11.566406 C 9.414062 11.566406 9.40625 11.5625 9.402344 11.558594 L 6.671875 10.167969 L 14.996094 5.921875 L 23.324219 10.167969 L 20.59375 11.558594 C 20.585938 11.5625 20.582031 11.566406 20.578125 11.566406 L 14.996094 14.414062 Z M 9.027344 13.3125 L 6.671875 14.515625 L 9.402344 15.910156 L 9.417969 15.917969 L 14.996094 18.761719 L 20.578125 15.917969 L 20.59375 15.910156 L 23.324219 14.515625 L 20.964844 13.3125 L 15.761719 15.96875 C 15.28125 16.214844 14.714844 16.214844 14.234375 15.96875 Z M 6.671875 18.863281 L 9.027344 17.664062 L 14.234375 20.316406 C 14.714844 20.5625 15.28125 20.5625 15.761719 20.316406 L 20.964844 17.664062 L 23.324219 18.863281 L 14.996094 23.109375 Z M 6.671875 18.863281 " fill-opacity="1" fill-rule="evenodd"/></g></svg>