<svg xmlns="http://www.w3.org/2000/svg" xmlns:xlink="http://www.w3.org/1999/xlink" width="179" zoomAndPan="magnify" viewBox="0 0 134.25 133.499994" height="178" preserveAspectRatio="xMidYMid meet" version="1.0"><defs><filter x="0%" y="0%" width="100%" height="100%" id="8f3103ac99"><feColorMatrix values="0 0 0 0 1 0 0 0 0 1 0 0 0 0 1 0 0 0 1 0" color-interpolation-filters="sRGB"/></filter><clipPath id="c483feed8e"><path d="M 0 0.121094 L 133.503906 0.121094 L 133.503906 132.878906 L 0 132.878906 Z M 0 0.121094 " clip-rule="nonzero"/></clipPath><clipPath id="64e9ad8203"><path d="M 0 0.121094 L 12 0.121094 L 12 13 L 0 13 Z M 0 0.121094 " clip-rule="nonzero"/></clipPath><clipPath id="89980a3fea"><path d="M 121 120 L 133.503906 120 L 133.503906 132.878906 L 121 132.878906 Z M 121 120 " clip-rule="nonzero"/></clipPath><clipPath id="80d851f7f1"><path d="M 1 0.121094 L 133.503906 0.121094 L 133.503906 132 L 1 132 Z M 1 0.121094 " clip-rule="nonzero"/></clipPath><mask id="a6239d707d"><g filter="url(#8f3103ac99)"><rect x="-13.425" width="161.1" fill="#000000" y="-13.349999" height="160.199993" fill-opacity="0.4"/></g></mask><clipPath id="f67d3e77ab"><path d="M 0.414062 0.703125 L 14.734375 0.703125 L 14.734375 15 L 0.414062 15 Z M 0.414062 0.703125 " clip-rule="nonzero"/></clipPath><clipPath id="3d0c841443"><rect x="0" width="15" y="0" height="16"/></clipPath><mask id="e898e42fca"><g filter="url(#8f3103ac99)"><rect x="-13.425" width="161.1" fill="#000000" y="-13.349999" height="160.199993" fill-opacity="0.4"/></g></mask><clipPath id="45c5276c6d"><path d="M 1 0.367188 L 15 0.367188 L 15 14.6875 L 1 14.6875 Z M 1 0.367188 " clip-rule="nonzero"/></clipPath><clipPath id="f22df80626"><rect x="0" width="16" y="0" height="15"/></clipPath></defs><g clip-path="url(#c483feed8e)"><path fill="#ffffff" d="M 0 0.121094 L 133.503906 0.121094 L 133.503906 132.878906 L 0 132.878906 Z M 0 0.121094 " fill-opacity="1" fill-rule="nonzero"/><path fill="#ffffff" d="M 0 0.121094 L 133.503906 0.121094 L 133.503906 132.878906 L 0 132.878906 Z M 0 0.121094 " fill-opacity="1" fill-rule="nonzero"/></g><g clip-path="url(#64e9ad8203)"><path fill="#1b5e20" d="M 0 1.988281 C 0 0.957031 0.835938 0.121094 1.863281 0.121094 L 11.933594 0.121094 L 11.933594 12.054688 L 0 12.054688 Z M 0 1.988281 " fill-opacity="1" fill-rule="nonzero"/></g><g clip-path="url(#89980a3fea)"><path fill="#1b5e20" d="M 121.570312 120.945312 L 133.503906 120.945312 L 133.503906 131.015625 C 133.503906 132.046875 132.667969 132.878906 131.640625 132.878906 L 121.570312 132.878906 Z M 121.570312 120.945312 " fill-opacity="1" fill-rule="nonzero"/></g><g clip-path="url(#80d851f7f1)"><path fill="#2e7d32" d="M 132.234375 131.617188 L 1.28125 1.398438 C 0.808594 0.925781 1.140625 0.121094 1.808594 0.121094 L 61.050781 0.121094 C 63.03125 0.121094 64.925781 0.90625 66.324219 2.308594 L 131.320312 67.300781 C 132.71875 68.699219 133.503906 70.597656 133.503906 72.574219 L 133.503906 131.085938 C 133.503906 131.75 132.703125 132.085938 132.234375 131.617188 Z M 132.234375 131.617188 " fill-opacity="1" fill-rule="nonzero"/></g><path fill="#ffb300" d="M 91.875 41.933594 L 88.027344 49.488281 L 94.019531 55.480469 L 85.648438 54.15625 L 81.800781 61.707031 L 80.472656 53.335938 L 72.101562 52.011719 L 79.652344 48.160156 L 78.328125 39.789062 L 84.324219 45.785156 Z M 91.875 41.933594 " fill-opacity="1" fill-rule="nonzero"/><g mask="url(#a6239d707d)"><g transform="matrix(1, 0, 0, 1, 54, 24)"><g clip-path="url(#3d0c841443)"><g clip-path="url(#f67d3e77ab)"><path fill="#ffb300" d="M 12.6875 2.082031 L 10.320312 6.726562 L 14.007812 10.414062 L 8.859375 9.601562 L 6.492188 14.246094 L 5.675781 9.09375 L 0.523438 8.28125 L 5.171875 5.910156 L 4.355469 0.761719 L 8.042969 4.449219 Z M 12.6875 2.082031 " fill-opacity="1" fill-rule="nonzero"/></g></g></g></g><g mask="url(#e898e42fca)"><g transform="matrix(1, 0, 0, 1, 96, 63)"><g clip-path="url(#f22df80626)"><g clip-path="url(#45c5276c6d)"><path fill="#ffb300" d="M 13.203125 1.863281 L 10.832031 6.511719 L 14.519531 10.199219 L 9.371094 9.382812 L 7.003906 14.03125 L 6.1875 8.878906 L 1.035156 8.0625 L 5.683594 5.695312 L 4.867188 0.542969 L 8.554688 4.230469 Z M 13.203125 1.863281 " fill-opacity="1" fill-rule="nonzero"/></g></g></g></g></svg>