<svg xmlns="http://www.w3.org/2000/svg" xmlns:xlink="http://www.w3.org/1999/xlink" width="42" zoomAndPan="magnify" viewBox="0 0 31.5 30.75" height="41" preserveAspectRatio="xMidYMid meet" version="1.0"><defs><clipPath id="38cfe04cda"><path d="M 3.683594 3.144531 L 27.308594 3.144531 L 27.308594 27.507812 L 3.683594 27.507812 Z M 3.683594 3.144531 " clip-rule="nonzero"/></clipPath></defs><g clip-path="url(#38cfe04cda)"><path fill="#ffb300" d="M 18.03125 4.171875 C 18.03125 3.605469 17.574219 3.144531 17.011719 3.144531 C 16.449219 3.144531 15.992188 3.605469 15.992188 4.171875 L 15.992188 4.683594 L 15.484375 4.683594 C 14.921875 4.683594 14.464844 5.144531 14.464844 5.710938 C 14.464844 6.277344 14.921875 6.738281 15.484375 6.738281 L 15.992188 6.738281 L 15.992188 7.25 C 15.992188 7.816406 16.449219 8.277344 17.011719 8.277344 C 17.574219 8.277344 18.03125 7.816406 18.03125 7.25 L 18.03125 6.738281 L 18.539062 6.738281 C 19.101562 6.738281 19.558594 6.277344 19.558594 5.710938 C 19.558594 5.144531 19.101562 4.683594 18.539062 4.683594 L 18.03125 4.683594 Z M 16.203125 13.410156 C 15.40625 12.609375 14.117188 12.609375 13.320312 13.410156 L 11.199219 15.550781 L 4.28125 22.523438 C 3.484375 23.324219 3.484375 24.625 4.28125 25.425781 L 5.601562 26.757812 C 6.394531 27.558594 7.6875 27.558594 8.480469 26.757812 L 15.398438 19.78125 L 17.523438 17.644531 C 18.316406 16.84375 18.316406 15.542969 17.523438 14.738281 Z M 14.679688 17.605469 L 13.359375 16.273438 L 14.761719 14.863281 L 16.082031 16.191406 Z M 11.917969 17.726562 L 13.238281 19.054688 L 7.039062 25.304688 L 5.722656 23.972656 Z M 22.613281 18.542969 C 23.175781 18.542969 23.632812 19.003906 23.632812 19.570312 C 24.195312 19.570312 24.652344 20.03125 24.652344 20.597656 C 24.652344 21.164062 24.195312 21.621094 23.632812 21.621094 C 23.632812 22.191406 23.175781 22.648438 22.613281 22.648438 C 22.050781 22.648438 21.597656 22.191406 21.597656 21.621094 C 21.035156 21.621094 20.578125 21.164062 20.578125 20.597656 C 20.578125 20.03125 21.035156 19.570312 21.597656 19.570312 C 21.597656 19.003906 22.050781 18.542969 22.613281 18.542969 Z M 24.5625 7.765625 C 24.167969 7.363281 23.519531 7.363281 23.125 7.765625 C 22.726562 8.164062 22.726562 8.816406 23.125 9.214844 L 23.632812 9.730469 L 23.125 10.242188 C 22.726562 10.644531 22.726562 11.292969 23.125 11.695312 C 23.519531 12.09375 24.167969 12.09375 24.5625 11.695312 L 25.074219 11.179688 L 25.582031 11.695312 C 25.980469 12.09375 26.625 12.09375 27.023438 11.695312 C 27.421875 11.292969 27.421875 10.644531 27.023438 10.242188 L 26.511719 9.730469 L 27.023438 9.214844 C 27.421875 8.816406 27.421875 8.164062 27.023438 7.765625 C 26.625 7.363281 25.980469 7.363281 25.582031 7.765625 L 25.074219 8.277344 Z M 24.5625 7.765625 " fill-opacity="1" fill-rule="evenodd"/></g></svg>